<svg xmlns="http://www.w3.org/2000/svg" class="svg-logo" width="180" height="50" viewBox="0 0 630 430" style="height: auto;"><rect width="180" height="50" y="-100" rx="0" ry="0" fill="transparent" fill-opacity="0"></rect><g data-element="wrapper" transform="translate(-142.19998321533524 -96.92498855591037) scale(1.4500000000000102)"><g ><g data-element="icon" transform="scale(0.133333288083581) translate(2831.3681483903056 1312.5006865360574)"><path id="color_x5F_3" d="M100.423,274.432c-12.594-0.703-25-2.085-37.145-4.07v-81.006    c0-11.202,9.088-20.282,20.284-20.282h275.649c-18.465,16.862-36.544,33.234-55.015,47.347    c-20.613,15.969-41.756,28.993-63.311,38.343c-10.823,4.543-21.73,8.241-32.719,11.097c-5.599,1.162-10.986,2.662-16.631,3.412    c-2.857,0.432-5.414,0.956-8.471,1.341l-9.334,1.101C148.996,275.132,124.354,275.75,100.423,274.432z" fill="#ff6500" fill-opacity="1"></path> <path id="color_x5F_2" d="M598.298,39.369L567.839,94.78l-30.46,55.409c-5.06,9.196-18.179,9.475-23.617,0.501    l-27.12-44.79c-10.826,8.643-20.785,18.327-30.054,28.723c-9.658,10.847-18.639,22.454-27.408,34.451h-69.967    c2.209-2.012,4.394-4,6.606-6.026c20.863-19.001,42.367-38.669,66.493-55.86c12.722-9.074,26.306-17.294,40.511-24.109    l-24.577-40.555c-5.432-8.98,0.893-20.477,11.377-20.697l63.224-1.326l63.219-1.331C596.548,18.949,603.345,30.172,598.298,39.369z" fill="#ff6500" fill-opacity="1"></path> <path id="color_x5F_1" d="M523.265,189.355v280.31c0,11.198-9.083,20.281-20.279,20.281H83.562    c-11.196,0-20.284-9.082-20.284-20.281v-39.609C25.259,424.726,0,412.205,0,412.205c36.171,0.243,63.278-1.446,63.278-1.446    c15.821-1.223,31.434-3.202,46.801-5.885c31.623-5.547,62.305-13.669,91.42-24.684l10.944-3.976    c3.686-1.37,7.718-3.146,11.533-4.709c7.773-3.072,15.257-6.988,22.74-10.609c14.782-7.792,28.836-16.62,42.021-26.23    c26.217-19.479,48.489-42.018,67.506-65.222c19.199-23.185,35.396-46.954,51.334-69.889c7.195-10.358,14.331-20.547,21.601-30.481    h73.808C514.182,169.073,523.265,178.153,523.265,189.355z M361.093,546.373h-47.663v-28.04c0-7.592-6.15-13.748-13.744-13.748    h-12.823c-7.594,0-13.753,6.156-13.753,13.748v28.04h-47.657c-9.509,0-17.226,7.715-17.226,17.227    c0,9.522,7.717,17.233,17.226,17.233h135.64c9.508,0,17.232-7.711,17.232-17.233C378.325,554.088,370.601,546.373,361.093,546.373z" fill="#ff6500" fill-opacity="1"></path></g><path d="M203.58 191.84L205.05 192.09L207.33 191.59Q208.20 191.59 208.73 191.97Q209.27 192.34 209.27 192.67Q209.27 193 209.11 193.63Q208.95 194.25 206.58 205.81Q204.20 217.38 203.11 223.06L203.11 223.06Q208.42 215.84 215.52 205.28Q222.61 194.72 223.80 191.25L223.80 191.25Q224.17 190.16 224.77 189.56Q225.36 188.97 225.83 188.86Q226.30 188.75 227.27 188.75Q228.23 188.75 229.56 189.17Q230.89 189.59 230.89 190.56L230.89 190.56Q230.89 192.41 225.42 201.19Q219.95 209.97 212.94 219.84Q205.92 229.72 201.20 235.47L201.20 235.47Q200.36 236.50 199.16 236.50Q197.95 236.50 196.63 236.08Q195.30 235.66 195.30 234.59L195.30 234.59Q195.30 231.16 201.33 201.56L201.33 201.56Q196.17 208.25 188.80 220.19L188.80 220.19Q181.11 232.53 180.11 235.50L180.11 235.50Q179.55 237.28 178.83 237.56L178.83 237.56Q178.33 237.78 177.77 237.78L177.77 237.78L175.30 238.06Q174.58 238.06 173.97 237.66Q173.36 237.25 173.36 236.81L173.36 236.81Q173.36 235.56 176.81 229.34Q180.27 223.13 184.88 215.83Q189.48 208.53 194.52 201.63Q199.55 194.72 202.30 192.34L202.30 192.34Q202.86 191.84 203.58 191.84L203.58 191.84ZM239.33 213.13L239.33 213.13Q239.33 215.19 237.66 216.75Q235.98 218.31 233.86 218.31L233.86 218.31Q233.17 218.31 232.95 217.98Q232.73 217.66 232.73 217.13Q232.73 216.59 232.86 216.09L232.86 216.09Q231.73 216.47 230.36 217.25Q228.98 218.03 226.98 219.56Q224.98 221.09 224.98 221.84L224.98 221.84Q224.98 222.09 225.72 222.09Q226.45 222.09 227.98 221.58Q229.52 221.06 230.13 221.06Q230.73 221.06 230.92 221.13L230.92 221.13Q231.33 221.34 231.80 222.08Q232.27 222.81 232.27 223.23Q232.27 223.66 231.45 224.34Q230.64 225.03 229.61 225.39Q228.58 225.75 228.23 225.94L228.23 225.94Q221.64 229.63 221.64 231L221.64 231Q221.64 233.44 225.80 233.44L225.80 233.44Q228.45 233.44 231.14 231.75L231.14 231.75Q233.42 230.31 235.25 228.83Q237.08 227.34 237.56 227Q238.05 226.66 238.30 226.66L238.30 226.66Q239.11 226.66 239.11 228.47Q239.11 230.28 238.89 230.86Q238.67 231.44 237.64 232.28L237.64 232.28Q230.95 237.72 224.98 237.72L224.98 237.72Q221.80 237.72 219.89 236.84L219.89 236.84Q216.39 235.25 216.39 231.97L216.39 231.97Q216.39 227.66 222.36 225.44L222.36 225.44Q221.17 224.91 220.83 224.08Q220.48 223.25 220.48 221.42Q220.48 219.59 222.19 217.55Q223.89 215.50 226.36 214.19L226.36 214.19Q231.86 211.22 236.17 211.22L236.17 211.22Q237.20 211.22 238.27 211.72Q239.33 212.22 239.33 213.13ZM260.92 208.34L260.92 208.34Q261.33 208.09 262.02 208.09Q262.70 208.09 263.77 208.89Q264.83 209.69 264.83 210.27Q264.83 210.84 264.42 211.19Q264.02 211.53 261.56 213.77Q259.11 216 255.95 218.91Q252.80 221.81 250.92 223.50L250.92 223.50Q250.67 226.50 250.67 229.70Q250.67 232.91 251.52 232.91L251.52 232.91Q253.33 232.66 255.89 230L255.89 230Q256.83 229.03 257.75 228.03Q258.67 227.03 258.88 226.86Q259.08 226.69 259.39 226.69L259.39 226.69Q259.95 226.69 260.09 227.34Q260.23 228 260.23 229.23Q260.23 230.47 260.08 230.81L260.08 230.81Q259.23 232.56 256.13 235.08Q253.02 237.59 250.23 237.59L250.23 237.59Q245.70 237.59 245.70 231.34L245.70 231.34Q245.70 230.06 245.89 228.25L245.89 228.25Q240.67 233.75 237.48 237.78L237.48 237.78Q237.23 238.13 236.45 238.13Q235.67 238.13 234.70 237.34Q233.73 236.56 233.73 235.92Q233.73 235.28 233.86 234.91L233.86 234.91Q234.20 233.66 237.88 229.69Q241.55 225.72 246.27 221.66L246.27 221.66Q246.14 218.97 246.14 217.52Q246.14 216.06 245.97 216.06Q245.80 216.06 244.81 216.97Q243.83 217.88 243.27 217.88Q242.70 217.88 242.25 216.88Q241.80 215.88 241.80 215.47L241.80 215.47Q241.80 214.06 244.19 211.88Q246.58 209.69 248.58 209.69L248.58 209.69Q249.14 209.69 250.06 210.27Q250.98 210.84 251.05 211.53L251.05 211.53Q251.27 214.81 251.27 216.97L251.27 216.97Q256.17 211.63 260.92 208.34ZM281.92 196.44L283.39 196.25L284.67 196.56Q284.95 196.56 285.17 196.84Q285.39 197.13 285.39 197.38Q285.39 197.63 284.73 198.72Q284.08 199.81 283.19 201.20Q282.30 202.59 282.23 202.72L282.23 202.72Q284.67 202.53 285.69 202.53Q286.70 202.53 287.08 202.67Q287.45 202.81 287.94 203.45Q288.42 204.09 288.83 204.42Q289.23 204.75 289.23 205.41Q289.23 206.06 288.44 206.52Q287.64 206.97 286.73 207.06L286.73 207.06Q279.48 207.78 278.73 207.81L278.73 207.81Q276.20 211.69 271.66 219.89Q267.11 228.09 266.83 230.16L266.83 230.16Q266.70 231.09 266.70 231.69L266.70 231.69Q266.70 232.91 267.98 232.91Q269.27 232.91 270.83 231.92Q272.39 230.94 273.70 229.78L273.70 229.78Q277.20 226.66 277.45 226.66L277.45 226.66Q278.27 226.66 278.27 229.47L278.27 229.47Q278.27 231 276.86 232.22L276.86 232.22Q273.70 234.94 271.55 236.31Q269.39 237.69 267.23 237.69L267.23 237.69Q266.77 237.69 266.36 237.59L266.36 237.59Q263.86 237.13 262.69 235.77Q261.52 234.41 261.53 232.09Q261.55 229.78 262.91 226.48Q264.27 223.19 266.33 219.47L266.33 219.47Q269.70 213.41 273.08 208.09L273.08 208.09L271.89 208.25Q268.27 208.66 267.67 208.66L267.67 208.66L267.39 208.66Q266.48 208.66 265.64 208.30Q264.80 207.94 264.80 207.41Q264.80 206.88 265.25 206.38Q265.70 205.88 265.80 205.59L265.80 205.59Q266.02 204.91 267.44 204.06Q268.86 203.22 269.58 203.17Q270.30 203.13 270.97 203.09Q271.64 203.06 272.47 203.03Q273.30 203 273.73 202.97L273.73 202.97L276.55 202.84Q279.17 198.91 280.16 197.78Q281.14 196.66 281.30 196.55Q281.45 196.44 281.92 196.44L281.92 196.44ZM319.89 194.66Q321.55 194.66 323.09 196.03Q324.64 197.41 324.64 199.09Q324.64 200.78 323.80 203.48Q322.95 206.19 321.44 209.23Q319.92 212.28 317.75 215.55Q315.58 218.81 313.03 221.89Q310.48 224.97 307.44 227.73Q304.39 230.50 301.27 232.56L301.27 232.56Q294.45 237.06 287.95 237.06L287.95 237.06Q285.70 237.06 283.95 235.88Q282.20 234.69 281.23 233.53L281.23 233.53Q279.02 230.88 279.02 226.17Q279.02 221.47 282.13 215.13Q285.23 208.78 290.63 203.14Q296.02 197.50 302.70 193.89Q309.39 190.28 315.42 190.28L315.42 190.28Q316.61 190.28 317.67 190.81Q318.73 191.34 318.73 192.05Q318.73 192.75 318.39 193.20Q318.05 193.66 317.73 194.17Q317.42 194.69 317.20 194.91L317.20 194.91Q318.23 194.66 319.89 194.66ZM308.14 208.69L308.23 209.09Q308.23 209.72 307.80 209.72Q307.36 209.72 305.98 208.20Q304.61 206.69 304.61 205.66L304.61 205.66Q304.61 203.25 307.84 200.19Q311.08 197.13 315.05 195.53L315.05 195.53Q310.67 195.78 304.89 199.25Q299.11 202.72 294.77 207.61Q290.42 212.50 287.75 217.81Q285.08 223.13 285.08 226.44L285.08 226.44Q285.08 228.47 285.98 229.92Q286.89 231.38 289.06 231.38Q291.23 231.38 294.30 229.88Q297.36 228.38 300.27 225.94L300.27 225.94Q310.27 217.47 315.89 207.13L315.89 207.13Q318.17 202.88 318.17 201.25L318.17 201.25Q318.17 200.59 317.73 200.59L317.73 200.59Q316.45 200.59 314.11 202.23Q311.77 203.88 309.95 205.84Q308.14 207.81 308.14 208.69L308.14 208.69ZM332.77 231.69L332.77 231.69Q332.77 233.06 334.64 233.06L334.64 233.06Q335.64 233.06 337.16 232.06Q338.67 231.06 339.89 229.88L339.89 229.88Q343.14 226.66 343.58 226.66L343.58 226.66Q344.39 226.66 344.39 229Q344.39 231.34 342.92 232.22L342.92 232.22Q338.45 236.25 336.02 237.13L336.02 237.13Q334.64 237.59 332.98 237.56Q331.33 237.53 329.70 236.13Q328.08 234.72 328.08 232.70Q328.08 230.69 329.14 228.13Q330.20 225.56 331.31 223.73Q332.42 221.91 334.05 219.48Q335.67 217.06 335.77 216.47L335.77 216.47L335.70 216.41Q334.67 216.50 330.59 220.47Q326.52 224.44 323.86 227.38Q321.20 230.31 317.52 235.22L317.52 235.22Q316.48 236.56 315.83 236.56Q315.17 236.56 314.06 236.14Q312.95 235.72 312.70 235.53Q312.45 235.34 312.45 234.97Q312.45 234.59 312.67 234.05Q312.89 233.50 313.09 233.14Q313.30 232.78 313.77 232.03Q314.23 231.28 315.63 228.86Q317.02 226.44 319.89 221.63Q322.77 216.81 323.33 215.81L323.33 215.81Q324.52 213.75 325.27 212.81L325.27 212.81Q326.67 211.03 330.02 211.03L330.02 211.03Q330.77 211.03 330.77 211.97L330.77 211.97Q330.77 213.44 328.05 217.50L328.05 217.50L326.73 219.47Q332.14 213.47 335.86 211.88L335.86 211.88Q337.67 211.09 339.13 211.09Q340.58 211.09 341.44 211.88Q342.30 212.66 342.30 213.61Q342.30 214.56 341.64 215.89Q340.98 217.22 340.31 218.27Q339.64 219.31 338.55 220.91Q337.45 222.50 337.36 222.64Q337.27 222.78 336.88 223.39Q336.48 224 336.30 224.28Q336.11 224.56 335.67 225.27Q335.23 225.97 334.97 226.44Q334.70 226.91 334.31 227.59Q333.92 228.28 333.69 228.78Q333.45 229.28 333.20 229.88L333.20 229.88Q332.77 230.97 332.77 231.69ZM362.95 213.13L362.95 213.13Q362.95 215.19 361.28 216.75Q359.61 218.31 357.48 218.31L357.48 218.31Q356.80 218.31 356.58 217.98Q356.36 217.66 356.36 217.13Q356.36 216.59 356.48 216.09L356.48 216.09Q355.36 216.47 353.98 217.25Q352.61 218.03 350.61 219.56Q348.61 221.09 348.61 221.84L348.61 221.84Q348.61 222.09 349.34 222.09Q350.08 222.09 351.61 221.58Q353.14 221.06 353.75 221.06Q354.36 221.06 354.55 221.13L354.55 221.13Q354.95 221.34 355.42 222.08Q355.89 222.81 355.89 223.23Q355.89 223.66 355.08 224.34Q354.27 225.03 353.23 225.39Q352.20 225.75 351.86 225.94L351.86 225.94Q345.27 229.63 345.27 231L345.27 231Q345.27 233.44 349.42 233.44L349.42 233.44Q352.08 233.44 354.77 231.75L354.77 231.75Q357.05 230.31 358.88 228.83Q360.70 227.34 361.19 227Q361.67 226.66 361.92 226.66L361.92 226.66Q362.73 226.66 362.73 228.47Q362.73 230.28 362.52 230.86Q362.30 231.44 361.27 232.28L361.27 232.28Q354.58 237.72 348.61 237.72L348.61 237.72Q345.42 237.72 343.52 236.84L343.52 236.84Q340.02 235.25 340.02 231.97L340.02 231.97Q340.02 227.66 345.98 225.44L345.98 225.44Q344.80 224.91 344.45 224.08Q344.11 223.25 344.11 221.42Q344.11 219.59 345.81 217.55Q347.52 215.50 349.98 214.19L349.98 214.19Q355.48 211.22 359.80 211.22L359.80 211.22Q360.83 211.22 361.89 211.72Q362.95 212.22 362.95 213.13Z" data-element="company-name" data-text-path="" data-text="NextOne" data-font-family="Yellowtail" fill="#ffffff" fill-opacity="1"></path></g></g></svg>